<svg width="16" height="16" viewBox="0 0 16 16" fill="none" xmlns="http://www.w3.org/2000/svg">
<g clip-path="url(#clip0_853_8200)">
<path d="M14.1399 10.592C13.7158 11.595 13.0525 12.4788 12.2079 13.1662C11.3633 13.8536 10.3631 14.3236 9.2949 14.5352C8.22668 14.7468 7.12289 14.6935 6.08004 14.3799C5.03719 14.0663 4.08703 13.5021 3.31262 12.7365C2.53822 11.9709 1.96315 11.0272 1.6377 9.988C1.31225 8.9488 1.24632 7.84569 1.44568 6.77512C1.64503 5.70455 2.10361 4.69912 2.78131 3.84672C3.45901 2.99432 4.3352 2.32091 5.33328 1.88536M14.6666 7.9987C14.6666 7.12322 14.4942 6.25631 14.1591 5.44747C13.8241 4.63864 13.333 3.90371 12.714 3.28465C12.0949 2.6656 11.36 2.17453 10.5512 1.8395C9.74233 1.50447 8.87542 1.33203 7.99994 1.33203V7.9987H14.6666Z" stroke="white" stroke-width="1.6" stroke-linecap="round" stroke-linejoin="round"/>
</g>
<defs>
<clipPath id="clip0_853_8200">
<rect width="16" height="16" fill="white"/>
</clipPath>
</defs>
</svg>
